# xmcd CD database file
#
# Track frame offsets:
#	150
#	30667
#	68857
#	111610
#	161037
#
# Disc length: 2959 seconds
#
# Revision: 0
# Processed by: cddbd v1.4PL0 Copyright (c) Steve Scherf et al.
# Submitted via: CDex 1.50
#
DISCID=430b8d05
DTITLE=Wes Montgomery - Complete Live In Paris 1965 [CD2)
DYEAR=1965
DGENRE=Jazz
TTITLE0=The Girl Next Door
TTITLE1=Here's That Rainy Day
TTITLE2=Round About Midnight
TTITLE3=Full House
TTITLE4=Blue And Boogie - West Coast Blues
EXTD=YEAR: 1965
EXTT0=
EXTT1=
EXTT2=
EXTT3=
EXTT4=
PLAYORDER=
